<?xml version="1.0" encoding="UTF-8"?>
<svg xmlns="http://www.w3.org/2000/svg" viewBox="0 0 283.46 283.46">
  <defs>
    <style>
      .st0 {
        fill: #f1c8b6;
      }
    </style>
  </defs>
  <rect x="0" y="0" width="283.46" height="283.46" fill="#000000"/>
  <g>
    <path class="st0" d="M240.58,217.7h0s-1.02,0-1.02,0c-36.14,0-76.06-5.45-94.42-69.29-3.02,20.59-4.61,43.38-4.61,66.27v1h-6.06v-1c0-23.49-1.43-45.65-4.26-65.95-5.76,20.1-13.97,35.3-25.02,46.36-19.91,19.93-46.44,22.62-69.76,22.62h-3.03V51.33h6.06v36.64c7.53-25.02,21.36-38.67,39.44-38.67,23.7,0,41.81,23.52,52.54,68.1,2.71-18.54,4.06-40.4,4.02-65.06v-1s6.06,0,6.06,0v1c.04,24.82,1.46,46.8,4.23,65.44,4.91-20.04,11.33-36.01,19.12-47.53,9.39-13.89,20.57-20.93,33.22-20.93,17.97,0,31.8,13.85,39.44,39.23v-37.2h6.06v165.35s0,1,0,1h-1s-1.01,0-1.01,0ZM147.61,133.68c4.84,22.61,12.34,40.22,22.31,52.33,18.05,21.92,42.62,25.35,66.61,25.61v-78.12c0-37.63-12.34-78.14-39.44-78.14-22.27,0-39.84,27.81-49.48,78.32ZM77.91,55.36c-29.11,0-39.44,42.09-39.44,78.14v78.12c21-.23,44.67-3.03,62.45-20.83,12.48-12.5,21.24-31.38,26.77-57.72-1.99-10.7-4.39-20.48-7.12-29.08-7.03-22.18-20.15-48.62-42.66-48.62ZM133.87,133.74c1.46,8.05,2.69,16.55,3.67,25.36,1.04-9,2.34-17.66,3.88-25.84-1.5-7.23-2.77-15.04-3.78-23.33-.99,8.48-2.26,16.46-3.77,23.81Z"></path>
    <path class="st0" d="M77.91,50.3c26.99,0,43.64,31.18,52.73,72.38,3.28-19.84,4.87-43.24,4.83-70.34h4.06c.04,27.27,1.71,50.75,5.03,70.63,9.51-42.23,26.69-72.66,52.53-72.66,21.21,0,34.35,19.91,40.44,45.86v-43.83h4.06v164.35h-2.02c-39.09,0-77.49-7.03-94.7-73.09-3.59,22.47-5.33,47.05-5.33,71.06h-4.06c0-25.41-1.72-49.52-4.96-70.85-5.77,22.3-14.38,38.89-26.02,50.55-19.65,19.67-45.93,22.33-69.05,22.33h-2.03V52.33h4.06v43.31c5.81-25.01,18.32-45.34,40.44-45.34M146.59,133.69h0c4.91,23.08,12.41,40.62,22.56,52.95,18.31,22.23,43.57,25.81,68.38,25.98v-79.13c0-38.11-12.65-79.14-40.44-79.14-25.41,0-41.94,34.31-50.5,79.33M37.47,212.62c21.78-.16,46.11-3.07,64.15-21.13,12.54-12.55,21.53-31.89,27.08-58.42-1.99-10.72-4.39-20.59-7.18-29.4-7.14-22.5-20.48-49.31-43.61-49.31-29.85,0-40.44,42.63-40.44,79.14h0v79.13M132.85,133.72s0,0,0,0h0s0,0,0,0c2.05,11.29,3.6,23.16,4.67,35.21,1.15-12.36,2.78-24.37,4.91-35.68-2.04-9.76-3.66-20.64-4.83-32.79-1.1,12.14-2.69,23.21-4.76,33.27M241.59,216.69h0s0,0,0,0h0s0,0,0,0M77.91,48.3c-11,0-20.38,4.72-27.89,14.04-4.18,5.18-7.7,11.69-10.55,19.44v-31.45h-8.06v168.36h4.03c23.53,0,50.3-2.72,70.47-22.91,10.34-10.35,18.21-24.26,23.93-42.34,2.42,18.99,3.64,39.54,3.64,61.23v2h8.06v-2c0-21.18,1.36-42.28,3.96-61.62,19.08,60.39,58.4,65.65,94.06,65.65h2.02s2,0,2,0v-2s0-2,0-2h0V50.34h-8.06v32.04c-2.95-8.03-6.63-14.77-11-20.14-7.53-9.25-16.76-13.93-27.44-13.93-13,0-24.45,7.19-34.04,21.37-7.2,10.65-13.24,25.06-18,42.93-2.3-17.48-3.48-37.7-3.51-60.28v-2h-8.06v2c.04,22.38-1.08,42.44-3.31,59.81-10.99-41.83-28.95-63.85-52.25-63.85h0ZM148.63,133.67c5.57-29.06,19.22-77.31,48.46-77.31,15.02,0,23.96,13.1,28.81,24.08,6.12,13.85,9.63,33.19,9.63,53.05v77.11c-23.42-.34-47.29-3.94-64.83-25.23-9.84-11.95-17.26-29.35-22.06-51.7h0ZM39.47,210.6v-77.11c0-35.58,10.07-77.14,38.44-77.14,21.91,0,34.77,26.06,41.71,47.92,2.7,8.51,5.07,18.19,7.05,28.77-5.42,25.69-14.32,44.88-26.46,57.03-17.24,17.26-40.2,20.21-60.74,20.52h0ZM134.89,133.75c1.04-5.1,1.97-10.5,2.77-16.15.8,5.47,1.72,10.71,2.74,15.67-1.06,5.68-2.01,11.59-2.84,17.68-.78-5.92-1.67-11.66-2.67-17.2h0Z"></path>
  </g>
</svg>
