<svg xmlns="http://www.w3.org/2000/svg" id="Layer_1" viewBox="0 0 351.06 272.19"><defs><style>      .st0 {        fill: #13110c;      }    </style></defs><g><path class="st0" d="M4.09,208.39l-.13-.89,2.17-2.8v-43.45l-2.17-2.93.13-.89h7.26l19.24,30.45,19.11-30.45h7.26l.13.89-2.17,2.8v43.45l2.17,2.8-.13.89h-8.66l-.13-.89,2.17-2.8v-24.46l.13-15.8-8.28,13.25-11.21,17.58h-1.15l-11.21-17.58-8.28-13.12.13,15.8v24.46l2.17,2.8-.13.89H4.09Z"></path><path class="st0" d="M62.07,208.39l-.13-.89,2.42-2.8c4.84-16.56,12.36-32.62,22.55-47.91h1.15c10.07,15.42,17.58,31.34,22.42,47.91l2.42,2.8-.13.89h-8.54l-.13-.89,1.78-2.8c-1.4-4.84-3.06-9.68-4.97-14.27h-27.01c-1.91,4.59-3.57,9.3-4.97,14.27l1.78,2.8-.13.89h-8.54ZM75.45,186.47h23.7c-3.7-8.28-7.64-15.8-11.85-22.68-4.59,7.39-8.54,14.91-11.85,22.68Z"></path><path class="st0" d="M136.1,208.51c-1.91,0-4.97,0-8.92-.13-4.08,0-7.14-.13-9.3-.13l-.13-.89,2.17-2.8v-43.45l-2.17-2.8.13-.89c2.29,0,5.48,0,9.68-.13,4.08-.13,7.01-.13,8.79-.13,7.9,0,14.53,2.42,19.88,7.26,5.35,4.84,7.9,10.83,7.9,18.09,0,7.77-2.68,14.02-8.03,18.86-5.35,4.84-11.98,7.14-20,7.14h0ZM136.22,161.24h-3.57c-1.27,0-2.8,0-4.33.13-1.66,0-2.93.13-3.7.13v42.81c4.84.13,8.66.13,11.47.13,6.88,0,12.61-2.04,16.95-5.99,4.46-4.08,6.63-9.3,6.63-15.8,0-6.12-2.17-11.21-6.63-15.29s-10.07-6.12-16.82-6.12h0Z"></path><path class="st0" d="M195.73,209.28c-7.77,0-14.02-2.42-18.98-7.26-4.97-4.84-7.52-11.09-7.52-18.73s2.55-13.89,7.77-18.98c5.1-5.1,11.47-7.64,18.98-7.64,5.73,0,10.96,1.27,15.54,3.82l.13,5.86-.89.25-3.44-3.7c-3.7-1.53-7.39-2.29-11.34-2.29-6.37,0-11.59,2.17-15.8,6.37s-6.37,9.56-6.37,16.05,2.04,11.85,6.24,15.93c4.08,4.08,9.43,6.12,15.8,6.12,4.08,0,8.03-.89,11.85-2.68l3.44-3.82.89.25-.13,6.12c-4.97,2.93-10.32,4.33-16.18,4.33h0Z"></path><path class="st0" d="M217.64,208.39l-.13-.89,2.17-2.8v-43.45l-2.17-2.8.13-.89h8.66l.13.89-2.17,2.8v14.02h29.56v-14.02l-2.17-2.8.13-.89h8.66l.13.89-2.29,2.8v43.45l2.29,2.8-.13.89h-8.66l-.13-.89,2.17-2.8v-25.36h-29.56v25.36l2.17,2.8-.13.89h-8.66Z"></path><path class="st0" d="M267.84,208.39l-.13-.89,2.17-2.8v-43.45l-2.17-2.8.13-.89h29.31l.89,6.12-.76.38-3.57-2.42h-19.24v13.63h17.46l.76,4.46-.64.38c-2.17-.51-4.84-.76-8.03-.76h-9.56v25.1h19.49l3.95-2.42.76.38-1.4,6.24h-29.43v-.25Z"></path><path class="st0" d="M303.77,208.39l-.13-.89,2.17-2.8v-43.45l-2.17-2.8.13-.89h7.01l16.56,22.68,14.14,19.75-.25-19.75v-19.11l-2.17-2.8.13-.89h8.41l.13.89-2.17,2.8v47.4h-3.31l-18.48-25.74-13.63-18.73v40.65l2.17,2.8-.13.89h-8.41Z"></path><path class="st0" d="M70.22,265.47c-5.99,0-10.96-1.78-14.91-5.22s-5.86-7.9-5.86-13.12c0-7.01,3.31-12.61,9.94-16.82-1.15-2.42-1.78-4.71-1.78-6.88,0-3.19,1.27-5.86,3.7-7.77,2.42-1.91,5.99-2.93,10.58-2.93,5.1,0,10.19.76,15.16,2.29l.89,6.12-.76.38-3.82-3.31c-4.08-.89-7.9-1.4-11.34-1.4s-5.73.64-7.26,1.78c-1.66,1.15-2.42,2.8-2.42,4.71,0,3.31,2.04,7.14,5.99,11.21,3.95,4.08,10.45,9.17,19.62,15.29.89-2.42,1.27-4.97,1.27-7.52s-.25-5.1-.76-8.03l.51-.64h16.95l.64,4.33-.64.38c-1.78-.38-4.33-.64-7.64-.64h-4.97c.25,1.15.25,2.8.25,4.59,0,3.31-.64,6.63-1.91,9.81,2.29,1.4,4.71,2.93,7.26,4.59,2.42,1.53,4.71,2.68,6.75,3.44l.38.64-2.04,3.7-.76.13c-5.99-3.7-10.58-6.63-13.89-8.66-4.97,6.5-11.34,9.56-19.11,9.56h0ZM54.04,246.87c0,4.2,1.53,7.64,4.59,10.45s7.01,4.08,11.72,4.08c6.5,0,11.47-2.55,15.16-7.52-11.98-8.03-20-14.78-24.08-20.26-4.97,3.31-7.39,7.77-7.39,13.25Z"></path><path class="st0" d="M145.65,265.21c-8.92-14.91-15.54-30.83-19.88-47.91l-2.42-2.8.13-.89h8.54l.13.89-1.78,2.8c3.44,13.89,8.66,27.39,15.8,40.26,3.57-6.37,7.14-13.89,10.58-22.3-2.29-5.86-4.2-11.85-5.86-17.84l-2.42-2.8.13-.89h8.54l.13.89-1.78,2.8c3.7,13.89,9.17,27.27,16.44,40.26,7.01-12.61,12.23-25.99,15.93-40.26l-1.78-2.8.13-.89h8.41l.13.89-2.42,2.8c-4.2,16.95-10.83,33-19.75,47.91h-1.15c-4.71-7.77-8.79-15.93-12.36-24.46-3.82,8.92-7.9,17.07-12.36,24.46h-1.02v-.13Z"></path><path class="st0" d="M221.34,265.47c-7.26,0-13.51-2.55-18.48-7.52-4.97-4.97-7.64-11.34-7.64-18.86s2.55-13.76,7.77-18.86c5.1-5.22,11.34-7.77,18.6-7.77s13.51,2.55,18.48,7.52c5.1,4.97,7.64,11.34,7.64,18.86s-2.55,13.76-7.77,18.86c-5.22,5.22-11.34,7.77-18.6,7.77ZM221.34,261.39c5.99,0,11.09-2.17,15.29-6.5,4.2-4.33,6.37-9.68,6.37-16.05s-2.04-11.85-6.24-16.05-9.3-6.37-15.42-6.37-11.09,2.17-15.29,6.5c-4.2,4.33-6.37,9.68-6.37,16.05s2.04,11.85,6.24,16.05,9.3,6.37,15.42,6.37Z"></path><path class="st0" d="M253.32,264.45l-.13-.89,2.17-2.8v-43.45l-2.17-2.8.13-.89h8.66l.13.89-2.17,2.8v43.19h17.33l3.95-2.42.76.38-1.4,6.24h-27.27v-.25Z"></path><path class="st0" d="M286.57,264.45l-.13-.89,2.17-2.8v-43.45l-2.17-2.8.13-.89h28.8l.89,6.12-.76.38-3.7-2.42h-18.6v15.03h15.93l.76,4.46-.64.38c-2.17-.51-4.84-.76-8.03-.76h-8.03v23.95l2.17,2.8-.13.89h-8.66Z"></path><path class="st0" d="M75.19,163.28c-1.4-.89-2.68-2.04-3.57-3.44.89-1.4,2.04-2.55,3.57-3.44,1.53.89,2.68,2.04,3.44,3.44-.89,1.4-2.04,2.55-3.44,3.44Z"></path><path class="st0" d="M99.53,163.28c-1.4-.89-2.68-2.04-3.57-3.44.89-1.4,2.04-2.55,3.57-3.44,1.53.89,2.68,2.04,3.44,3.44-.76,1.4-2.04,2.55-3.44,3.44Z"></path></g><path class="st0" d="M234.46,105.94h-2.55c-21.48-.17-42.38-4.72-51.94-41.48-1.89,12.59-2.85,26.42-2.85,40.2h-2.55c0-14.31-.92-27.95-2.65-40.09-3.3,12.73-8.19,22.19-14.8,28.81-10.68,10.7-24.76,12.44-37.34,12.55h0s-2.55,0-2.55,0V10.38h2.55v25.15c3.54-14.17,11.05-25.15,24.21-25.15,10.77,0,19.56,10.37,25.41,29.98.97,3.23,1.85,6.7,2.64,10.37,1.71-11.1,2.55-24.1,2.52-39.07h2.55c.02,15.23.91,28.4,2.69,39.6,5.19-23.58,14.35-40.88,27.89-40.88,8.86,0,16.04,5.46,20.78,15.78,1.37,2.98,2.52,6.33,3.43,9.96V10.38h2.55v95.56ZM181.04,58.04c2.76,13.32,6.98,23.43,12.71,30.52,10.22,12.65,24.31,14.71,38.16,14.83v-45.23c0-22.51-7.49-45.23-24.21-45.23-12.96,0-21.93,19.22-26.66,45.11ZM119.79,58.16v45.23c12.05-.1,25.5-1.75,35.53-11.8,7.2-7.21,12.35-18.44,15.5-33.93-1.07-6.02-2.36-11.58-3.85-16.58-3.84-12.84-10.94-28.16-22.97-28.16-17.85,0-24.21,23.37-24.21,45.23ZM173.45,57.91c1.03,5.9,1.85,12.22,2.45,18.85.63-6.47,1.49-12.79,2.57-18.8-1.06-5.19-1.92-10.94-2.56-17.3-.6,6.25-1.42,12-2.47,17.26Z"></path></svg>