<?xml version="1.0" encoding="UTF-8"?>
<svg xmlns="http://www.w3.org/2000/svg" id="Layer_1" version="1.1" viewBox="0 0 283.46 283.46">
  <defs>
    <style>
      .st0 {
        fill: #f1c8b6;
      }
    </style>
  </defs>
  <rect x="-31" y="-39" width="337" height="345"></rect>
  <polygon class="st0" points="43.41 336.97 28.51 360.71 13.51 336.97 7.85 336.97 7.75 337.67 9.44 339.95 9.44 373.82 7.75 376.01 7.85 376.7 14.41 376.7 14.51 376.01 12.82 373.82 12.82 354.75 12.72 342.44 19.17 352.67 27.91 366.37 28.81 366.37 37.55 352.67 44 342.34 43.9 354.65 43.9 373.72 42.22 375.91 42.32 376.6 49.07 376.6 49.17 375.91 47.48 373.72 47.48 339.86 49.17 337.67 49.07 336.97 43.41 336.97"></polygon>
  <path class="st0" d="M63.47,359.62h18.47c-2.88-6.46-5.96-12.32-9.24-17.68-3.58,5.76-6.65,11.62-9.24,17.68M53.04,376.7l-.1-.7,1.89-2.18c3.77-12.91,9.63-25.43,17.58-37.34h.89c7.84,12.02,13.71,24.43,17.48,37.34l1.89,2.18-.1.7h-6.65l-.1-.7,1.39-2.18c-1.09-3.77-2.38-7.55-3.87-11.12h-21.06c-1.49,3.58-2.78,7.25-3.87,11.12l1.39,2.18-.1.7h-6.66Z"></path>
  <path class="st0" d="M157.23,377.4c-6.06,0-10.93-1.89-14.8-5.66s-5.86-8.64-5.86-14.6,1.99-10.83,6.06-14.8c3.97-3.97,8.94-5.96,14.8-5.96,4.47,0,8.54.99,12.12,2.98l.1,4.57-.7.2-2.68-2.88c-2.88-1.19-5.76-1.79-8.84-1.79-4.97,0-9.04,1.69-12.32,4.97s-4.97,7.45-4.97,12.51,1.59,9.24,4.87,12.42c3.18,3.18,7.35,4.77,12.32,4.77,3.18,0,6.26-.7,9.24-2.09l2.68-2.98.7.2-.1,4.77c-3.87,2.29-8.04,3.38-12.61,3.38"></path>
  <polygon class="st0" points="174.31 376.7 174.21 376.01 175.9 373.82 175.9 339.95 174.21 337.77 174.31 337.07 181.06 337.07 181.16 337.77 179.47 339.95 179.47 350.88 202.52 350.88 202.52 339.95 200.83 337.77 200.93 337.07 207.68 337.07 207.78 337.77 205.99 339.95 205.99 373.82 207.78 376.01 207.68 376.7 200.93 376.7 200.83 376.01 202.52 373.82 202.52 354.06 179.47 354.06 179.47 373.82 181.16 376.01 181.06 376.7 174.31 376.7"></polygon>
  <polygon class="st0" points="269.06 336.97 268.96 337.67 270.65 339.86 270.65 354.75 270.85 370.15 259.82 354.75 246.91 337.07 241.45 337.07 241.35 337.77 243.04 339.95 243.04 373.82 241.35 376.01 241.45 376.7 248 376.7 248.1 376.01 246.41 373.82 246.41 342.14 257.04 356.74 271.44 376.8 274.02 376.8 274.02 339.86 275.71 337.67 275.61 336.97 269.06 336.97"></polygon>
  <path class="st0" d="M46.78,406.7c0,3.28,1.19,5.96,3.58,8.14,2.38,2.19,5.46,3.18,9.14,3.18,5.06,0,8.94-1.99,11.82-5.86-9.34-6.26-15.59-11.52-18.77-15.79-3.87,2.58-5.76,6.06-5.76,10.33M59.4,421.2c-4.67,0-8.54-1.39-11.62-4.07s-4.57-6.16-4.57-10.23c0-5.46,2.58-9.83,7.75-13.11-.89-1.89-1.39-3.68-1.39-5.36,0-2.48.99-4.57,2.88-6.06s4.67-2.28,8.24-2.28c3.97,0,7.94.6,11.82,1.79l.7,4.77-.6.3-2.98-2.58c-3.18-.7-6.16-1.09-8.84-1.09s-4.47.5-5.66,1.39c-1.29.89-1.89,2.18-1.89,3.67,0,2.58,1.59,5.56,4.67,8.74,3.08,3.18,8.14,7.15,15.29,11.92.7-1.89.99-3.87.99-5.86s-.2-3.97-.6-6.26l.4-.5h13.21l.5,3.38-.5.3c-1.39-.3-3.38-.5-5.96-.5h-3.87c.2.89.2,2.19.2,3.58,0,2.58-.5,5.16-1.49,7.65,1.79,1.09,3.67,2.28,5.66,3.58,1.89,1.19,3.67,2.09,5.26,2.68l.3.5-1.59,2.88-.6.1c-4.67-2.88-8.24-5.16-10.83-6.75-3.87,5.06-8.84,7.45-14.9,7.45"></path>
  <path class="st0" d="M118.19,421c-6.95-11.62-12.12-24.03-15.49-37.34l-1.89-2.19.1-.69h6.65l.1.69-1.39,2.19c2.68,10.83,6.75,21.35,12.32,31.39,2.78-4.97,5.56-10.83,8.24-17.38-1.79-4.57-3.28-9.24-4.57-13.9l-1.89-2.19.1-.7h6.65l.1.7-1.39,2.19c2.88,10.83,7.15,21.25,12.81,31.39,5.46-9.83,9.53-20.26,12.42-31.39l-1.39-2.19.1-.7h6.55l.1.7-1.89,2.19c-3.28,13.21-8.44,25.72-15.39,37.34h-.89c-3.67-6.06-6.85-12.42-9.63-19.07-2.98,6.95-6.16,13.31-9.63,19.07h-.79v-.1h-.01Z"></path>
  <path class="st0" d="M177.19,418.02c4.67,0,8.64-1.69,11.92-5.07s4.97-7.55,4.97-12.51-1.59-9.24-4.87-12.51c-3.28-3.28-7.25-4.97-12.02-4.97s-8.64,1.69-11.92,5.06c-3.28,3.38-4.97,7.55-4.97,12.52s1.59,9.24,4.87,12.51c3.28,3.28,7.25,4.97,12.02,4.97M177.19,421.2c-5.66,0-10.53-1.99-14.4-5.86s-5.96-8.84-5.96-14.7,1.99-10.73,6.06-14.7c3.97-4.07,8.84-6.06,14.5-6.06s10.53,1.99,14.4,5.86c3.97,3.87,5.96,8.84,5.96,14.7s-1.99,10.73-6.06,14.7c-4.07,4.07-8.84,6.06-14.5,6.06"></path>
  <polygon class="st0" points="202.12 380.77 202.02 381.47 203.71 383.65 203.71 417.52 202.02 419.71 202.12 420.4 202.12 420.6 223.37 420.6 224.46 415.73 223.87 415.43 220.79 417.32 207.28 417.32 207.28 383.65 208.97 381.47 208.87 380.77 202.12 380.77"></polygon>
  <path class="st0" d="M228.04,420.4l-.1-.7,1.69-2.18v-33.87l-1.69-2.19.1-.69h22.45l.7,4.77-.6.3-2.88-1.89h-14.5v11.72h12.42l.6,3.48-.5.3c-1.69-.4-3.77-.6-6.26-.6h-6.26v18.67l1.69,2.18-.1.7h-6.76Z"></path>
  <path class="st0" d="M63.27,341.54c-1.09-.7-2.09-1.59-2.78-2.68.7-1.09,1.59-1.99,2.78-2.68,1.19.7,2.09,1.59,2.68,2.68-.7,1.09-1.59,1.99-2.68,2.68"></path>
  <path class="st0" d="M82.24,341.54c-1.09-.7-2.09-1.59-2.78-2.68.7-1.09,1.59-1.99,2.78-2.68,1.19.7,2.09,1.59,2.68,2.68-.6,1.09-1.59,1.99-2.68,2.68"></path>
  <g>
    <path class="st0" d="M240.58,217.7h0s-1.02,0-1.02,0c-36.14,0-76.06-5.45-94.42-69.29-3.02,20.59-4.61,43.38-4.61,66.27v1h-6.06v-1c0-23.49-1.43-45.65-4.26-65.95-5.76,20.1-13.97,35.3-25.02,46.36-19.91,19.93-46.44,22.62-69.76,22.62h-3.03V51.33h6.06v36.64c7.53-25.02,21.36-38.67,39.44-38.67,23.7,0,41.81,23.52,52.54,68.1,2.71-18.54,4.06-40.4,4.02-65.06v-1s6.06,0,6.06,0v1c.04,24.82,1.46,46.8,4.23,65.44,4.91-20.04,11.33-36.01,19.12-47.53,9.39-13.89,20.57-20.93,33.22-20.93,17.97,0,31.8,13.85,39.44,39.23v-37.2h6.06v165.35s0,1,0,1h-1s-1.01,0-1.01,0ZM147.61,133.68c4.84,22.61,12.34,40.22,22.31,52.33,18.05,21.92,42.62,25.35,66.61,25.61v-78.12c0-37.63-12.34-78.14-39.44-78.14-22.27,0-39.84,27.81-49.48,78.32ZM77.91,55.36c-29.11,0-39.44,42.09-39.44,78.14v78.12c21-.23,44.67-3.03,62.45-20.83,12.48-12.5,21.24-31.38,26.77-57.72-1.99-10.7-4.39-20.48-7.12-29.08-7.03-22.18-20.15-48.62-42.66-48.62ZM133.87,133.74c1.46,8.05,2.69,16.55,3.67,25.36,1.04-9,2.34-17.66,3.88-25.84-1.5-7.23-2.77-15.04-3.78-23.33-.99,8.48-2.26,16.46-3.77,23.81Z"></path>
    <path class="st0" d="M77.91,50.3c26.99,0,43.64,31.18,52.73,72.38,3.28-19.84,4.87-43.24,4.83-70.34h4.06c.04,27.27,1.71,50.75,5.03,70.63,9.51-42.23,26.69-72.66,52.53-72.66,21.21,0,34.35,19.91,40.44,45.86v-43.83h4.06v164.35h-2.02c-39.09,0-77.49-7.03-94.7-73.09-3.59,22.47-5.33,47.05-5.33,71.06h-4.06c0-25.41-1.72-49.52-4.96-70.85-5.77,22.3-14.38,38.89-26.02,50.55-19.65,19.67-45.93,22.33-69.05,22.33h-2.03V52.33h4.06v43.31c5.81-25.01,18.32-45.34,40.44-45.34M146.59,133.69h0c4.91,23.08,12.41,40.62,22.56,52.95,18.31,22.23,43.57,25.81,68.38,25.98v-79.13c0-38.11-12.65-79.14-40.44-79.14-25.41,0-41.94,34.31-50.5,79.33M37.47,212.62c21.78-.16,46.11-3.07,64.15-21.13,12.54-12.55,21.53-31.89,27.08-58.42-1.99-10.72-4.39-20.59-7.18-29.4-7.14-22.5-20.48-49.31-43.61-49.31-29.85,0-40.44,42.63-40.44,79.14h0v79.13M132.85,133.72s0,0,0,0h0s0,0,0,0c2.05,11.29,3.6,23.16,4.67,35.21,1.15-12.36,2.78-24.37,4.91-35.68-2.04-9.76-3.66-20.64-4.83-32.79-1.1,12.14-2.69,23.21-4.76,33.27M241.59,216.69h0s0,0,0,0h0s0,0,0,0M77.91,48.3c-11,0-20.38,4.72-27.89,14.04-4.18,5.18-7.7,11.69-10.55,19.44v-31.45h-8.06v168.36h4.03c23.53,0,50.3-2.72,70.47-22.91,10.34-10.35,18.21-24.26,23.93-42.34,2.42,18.99,3.64,39.54,3.64,61.23v2h8.06v-2c0-21.18,1.36-42.28,3.96-61.62,19.08,60.39,58.4,65.65,94.06,65.65h2.02s2,0,2,0v-2s0-2,0-2h0V50.34h-8.06v32.04c-2.95-8.03-6.63-14.77-11-20.14-7.53-9.25-16.76-13.93-27.44-13.93-13,0-24.45,7.19-34.04,21.37-7.2,10.65-13.24,25.06-18,42.93-2.3-17.48-3.48-37.7-3.51-60.28v-2h-8.06v2c.04,22.38-1.08,42.44-3.31,59.81-10.99-41.83-28.95-63.85-52.25-63.85h0ZM148.63,133.67c5.57-29.06,19.22-77.31,48.46-77.31,15.02,0,23.96,13.1,28.81,24.08,6.12,13.85,9.63,33.19,9.63,53.05v77.11c-23.42-.34-47.29-3.94-64.83-25.23-9.84-11.95-17.26-29.35-22.06-51.7h0ZM39.47,210.6v-77.11c0-35.58,10.07-77.14,38.44-77.14,21.91,0,34.77,26.06,41.71,47.92,2.7,8.51,5.07,18.19,7.05,28.77-5.42,25.69-14.32,44.88-26.46,57.03-17.24,17.26-40.2,20.21-60.74,20.52h0ZM134.89,133.75c1.04-5.1,1.97-10.5,2.77-16.15.8,5.47,1.72,10.71,2.74,15.67-1.06,5.68-2.01,11.59-2.84,17.68-.78-5.92-1.67-11.66-2.67-17.2h0Z"></path>
  </g>
  <path class="st0" d="M213.44,376.7l-.1-.7,1.69-2.18v-33.87l-1.69-2.19.1-.69h22.84l.7,4.77-.6.3-2.78-1.89h-15v10.63h13.61l.6,3.48-.5.3c-1.69-.4-3.77-.6-6.26-.6h-7.45v19.57h15.19l3.08-1.89.6.3-1.09,4.87h-22.94v-.2h0Z"></path>
  <path class="st0" d="M110.85,339.95h-2.78c-.99,0-2.19,0-3.38.1-1.29,0-2.28.1-2.88.1v33.37c3.77.1,6.75.1,8.94.1,5.36,0,9.83-1.59,13.21-4.67,3.48-3.18,5.16-7.25,5.16-12.32,0-4.77-1.69-8.74-5.16-11.92-3.48-3.18-7.85-4.77-13.11-4.77M110.75,376.8c-1.49,0-3.87,0-6.95-.1-3.18,0-5.56-.1-7.25-.1l-.1-.7,1.69-2.19v-33.87l-1.69-2.19.1-.7c1.79,0,4.27,0,7.55-.1,3.18-.1,5.46-.1,6.85-.1,6.16,0,11.32,1.89,15.49,5.66s6.16,8.44,6.16,14.1c0,6.06-2.09,10.93-6.26,14.7-4.17,3.77-9.34,5.56-15.59,5.56"></path>
</svg>
