<svg xmlns="http://www.w3.org/2000/svg" id="Layer_1" viewBox="0 0 351.06 272.19"><defs><style>      .st0 {        fill: #f1c8b6;      }    </style></defs><polygon class="st0" points="56.15 162.19 38.06 191.01 19.85 162.19 12.97 162.19 12.85 163.03 14.9 165.8 14.9 206.93 12.85 209.58 12.97 210.42 20.93 210.42 21.05 209.58 19 206.93 19 183.77 18.88 168.82 26.72 181.24 37.33 197.88 38.42 197.88 49.03 181.24 56.87 168.7 56.75 183.65 56.75 206.81 54.7 209.46 54.82 210.3 63.02 210.3 63.14 209.46 61.09 206.81 61.09 165.69 63.14 163.03 63.02 162.19 56.15 162.19"></polygon><g><path class="st0" d="M80.5,189.68h22.43c-3.5-7.84-7.24-14.95-11.21-21.47-4.34,6.99-8.08,14.11-11.22,21.47M67.84,210.42l-.12-.84,2.29-2.65c4.58-15.68,11.7-30.87,21.35-45.34h1.09c9.52,14.59,16.64,29.67,21.22,45.34l2.29,2.65-.12.84h-8.08l-.12-.84,1.69-2.65c-1.33-4.58-2.89-9.17-4.7-13.51h-25.57c-1.81,4.34-3.38,8.8-4.7,13.51l1.69,2.65-.12.84h-8.08Z"></path><path class="st0" d="M194.34,211.27c-7.36,0-13.27-2.29-17.97-6.87-4.7-4.58-7.11-10.49-7.11-17.73s2.41-13.14,7.36-17.97c4.82-4.82,10.85-7.24,17.97-7.24,5.43,0,10.37,1.21,14.71,3.62l.12,5.55-.84.24-3.26-3.5c-3.5-1.45-6.99-2.17-10.73-2.17-6.03,0-10.97,2.05-14.95,6.03-3.98,3.98-6.03,9.04-6.03,15.19s1.93,11.21,5.91,15.07c3.86,3.86,8.92,5.79,14.95,5.79,3.86,0,7.6-.84,11.21-2.53l3.26-3.62.84.24-.12,5.79c-4.7,2.77-9.77,4.1-15.32,4.1"></path></g><polygon class="st0" points="215.09 210.42 214.97 209.58 217.02 206.93 217.02 165.8 214.97 163.15 215.09 162.31 223.29 162.31 223.41 163.15 221.36 165.8 221.36 179.07 249.33 179.07 249.33 165.8 247.29 163.15 247.4 162.31 255.61 162.31 255.73 163.15 253.56 165.8 253.56 206.93 255.73 209.58 255.61 210.42 247.4 210.42 247.29 209.58 249.33 206.93 249.33 182.93 221.36 182.93 221.36 206.93 223.41 209.58 223.29 210.42 215.09 210.42"></polygon><polygon class="st0" points="330.13 162.19 330.01 163.03 332.06 165.69 332.06 183.77 332.3 202.47 318.92 183.77 303.24 162.31 296.61 162.31 296.49 163.15 298.54 165.8 298.54 206.93 296.49 209.58 296.61 210.42 304.57 210.42 304.69 209.58 302.64 206.93 302.64 168.46 315.54 186.18 333.03 210.54 336.16 210.54 336.16 165.69 338.21 163.03 338.09 162.19 330.13 162.19"></polygon><g><path class="st0" d="M60.25,246.84c0,3.98,1.45,7.24,4.34,9.89,2.89,2.65,6.63,3.86,11.1,3.86,6.15,0,10.85-2.41,14.35-7.12-11.34-7.6-18.93-13.99-22.79-19.17-4.7,3.13-6.99,7.35-6.99,12.54M75.56,264.45c-5.67,0-10.37-1.69-14.11-4.94-3.74-3.26-5.55-7.48-5.55-12.42,0-6.63,3.13-11.94,9.41-15.92-1.09-2.29-1.69-4.46-1.69-6.51,0-3.02,1.2-5.55,3.5-7.36s5.67-2.77,10.01-2.77c4.82,0,9.65.72,14.35,2.17l.84,5.79-.72.36-3.62-3.13c-3.86-.84-7.48-1.33-10.73-1.33s-5.43.6-6.87,1.69c-1.57,1.09-2.29,2.65-2.29,4.46,0,3.14,1.93,6.75,5.67,10.61,3.74,3.86,9.89,8.68,18.57,14.47.84-2.29,1.21-4.7,1.21-7.12s-.24-4.82-.72-7.6l.48-.6h16.04l.6,4.1-.6.36c-1.69-.36-4.1-.6-7.24-.6h-4.7c.24,1.09.24,2.65.24,4.34,0,3.13-.6,6.27-1.81,9.29,2.17,1.33,4.46,2.77,6.87,4.34,2.29,1.45,4.46,2.53,6.39,3.26l.36.6-1.93,3.5-.72.12c-5.67-3.5-10.01-6.27-13.14-8.2-4.7,6.15-10.73,9.04-18.09,9.04"></path><path class="st0" d="M146.95,264.21c-8.44-14.11-14.71-29.18-18.81-45.34l-2.29-2.65.12-.84h8.08l.12.84-1.69,2.65c3.26,13.14,8.2,25.93,14.95,38.11,3.38-6.03,6.75-13.14,10.01-21.1-2.17-5.55-3.98-11.22-5.55-16.88l-2.29-2.65.12-.84h8.08l.12.84-1.69,2.65c3.5,13.14,8.68,25.81,15.56,38.11,6.63-11.94,11.58-24.6,15.07-38.11l-1.69-2.65.12-.84h7.96l.12.84-2.29,2.65c-3.98,16.04-10.25,31.23-18.69,45.34h-1.09c-4.46-7.36-8.32-15.07-11.7-23.15-3.62,8.44-7.48,16.16-11.7,23.15h-.96v-.12Z"></path><path class="st0" d="M218.58,260.59c5.67,0,10.49-2.05,14.47-6.15,3.98-4.1,6.03-9.16,6.03-15.19s-1.93-11.21-5.91-15.19c-3.98-3.98-8.8-6.03-14.59-6.03s-10.49,2.05-14.47,6.15c-3.98,4.1-6.03,9.17-6.03,15.2s1.93,11.21,5.91,15.19c3.98,3.98,8.8,6.03,14.59,6.03M218.58,264.45c-6.87,0-12.78-2.41-17.49-7.11-4.7-4.7-7.24-10.73-7.24-17.85s2.41-13.02,7.36-17.85c4.82-4.94,10.73-7.36,17.6-7.36s12.78,2.41,17.49,7.12c4.82,4.7,7.24,10.73,7.24,17.85s-2.41,13.02-7.36,17.85c-4.95,4.95-10.73,7.36-17.61,7.36"></path></g><polygon class="st0" points="248.85 215.37 248.73 216.21 250.78 218.86 250.78 259.99 248.73 262.64 248.85 263.48 248.85 263.73 274.66 263.73 275.98 257.81 275.26 257.45 271.52 259.74 255.12 259.74 255.12 218.86 257.17 216.21 257.05 215.37 248.85 215.37"></polygon><g><path class="st0" d="M280.33,263.48l-.12-.84,2.05-2.65v-41.12l-2.05-2.65.12-.84h27.25l.84,5.79-.72.36-3.5-2.29h-17.61v14.23h15.07l.72,4.22-.6.36c-2.05-.48-4.58-.72-7.6-.72h-7.6v22.67l2.05,2.65-.12.84h-8.2Z"></path><path class="st0" d="M80.26,167.73c-1.33-.84-2.53-1.93-3.38-3.26.84-1.33,1.93-2.41,3.38-3.26,1.45.84,2.53,1.93,3.26,3.26-.84,1.33-1.93,2.41-3.26,3.26"></path><path class="st0" d="M103.3,167.73c-1.33-.84-2.53-1.93-3.38-3.26.84-1.33,1.93-2.41,3.38-3.26,1.45.84,2.53,1.93,3.26,3.26-.72,1.33-1.93,2.41-3.26,3.26"></path><path class="st0" d="M244.82,121.28h-1.35c-26.02,0-51.59-4.68-63.04-48.65-2.39,14.96-3.55,31.32-3.55,47.3h-2.7c0-16.92-1.14-32.97-3.3-47.16-3.84,14.84-9.58,25.89-17.32,33.65-13.08,13.1-30.58,14.87-45.97,14.87h-1.35V11.87h2.7v28.83c3.87-16.64,12.19-30.18,26.92-30.18,17.97,0,29.06,20.75,35.1,48.18,2.18-13.21,3.25-28.79,3.22-46.83h2.7c.03,18.15,1.14,33.78,3.35,47.02,6.33-28.11,17.76-48.37,34.97-48.37,14.12,0,22.86,13.25,26.92,30.53V11.87h2.7v109.41ZM181.59,66.03c3.27,15.37,8.26,27.04,15.02,35.25,12.19,14.8,29,17.18,45.52,17.29v-52.67c0-25.37-8.42-52.68-26.92-52.68-16.92,0-27.92,22.84-33.62,52.81ZM108.94,65.9v52.67c14.5-.11,30.7-2.04,42.71-14.07,8.35-8.36,14.33-21.23,18.03-38.89-1.32-7.13-2.92-13.7-4.78-19.57-4.75-14.98-13.64-32.83-29.03-32.83-19.87,0-26.92,28.38-26.92,52.68ZM172.44,66.05c1.37,7.52,2.39,15.42,3.11,23.44.76-8.23,1.85-16.22,3.27-23.76-1.35-6.5-2.44-13.74-3.21-21.83-.73,8.09-1.79,15.45-3.17,22.15Z"></path></g><path class="st0" d="M262.6,210.42l-.12-.84,2.05-2.65v-41.12l-2.05-2.65.12-.84h27.74l.84,5.79-.72.36-3.38-2.29h-18.21v12.9h16.52l.72,4.22-.6.36c-2.05-.48-4.58-.72-7.6-.72h-9.04v23.76h18.45l3.74-2.29.72.36-1.33,5.91h-27.86v-.24Z"></path><path class="st0" d="M138.03,165.8h-3.38c-1.21,0-2.65,0-4.1.12-1.57,0-2.77.12-3.5.12v40.52c4.58.12,8.2.12,10.85.12,6.51,0,11.94-1.93,16.04-5.67,4.22-3.86,6.27-8.8,6.27-14.95,0-5.79-2.05-10.61-6.27-14.47-4.22-3.86-9.53-5.79-15.92-5.79M137.91,210.54c-1.81,0-4.7,0-8.44-.12-3.86,0-6.75-.12-8.8-.12l-.12-.84,2.05-2.65v-41.12l-2.05-2.65.12-.84c2.17,0,5.19,0,9.17-.12,3.86-.12,6.63-.12,8.32-.12,7.48,0,13.75,2.29,18.81,6.87,5.06,4.58,7.48,10.25,7.48,17.12,0,7.36-2.53,13.27-7.6,17.85-5.06,4.58-11.34,6.75-18.93,6.75"></path></svg>